<svg xmlns="http://www.w3.org/2000/svg" viewBox="0 0 600 340">
  <defs>
    <linearGradient id="bg" x1="0%" y1="0%" x2="100%" y2="100%">
      <stop offset="0%" style="stop-color:#5A3220"/><stop offset="100%" style="stop-color:#C07840"/>
    </linearGradient>
  </defs>
  <rect width="600" height="340" fill="url(#bg)"/>
  <!-- Street scene -->
  <rect x="0" y="220" width="600" height="120" fill="#3E2010" opacity="0.8"/>
  <!-- Buildings -->
  <rect x="0" y="60" width="120" height="200" fill="#2C1A0E" opacity="0.6"/>
  <rect x="130" y="100" width="90" height="160" fill="#3E2010" opacity="0.6"/>
  <rect x="380" y="80" width="100" height="180" fill="#2C1A0E" opacity="0.6"/>
  <rect x="490" y="50" width="110" height="210" fill="#3E2010" opacity="0.6"/>
  <!-- Windows -->
  <rect x="15" y="80" width="20" height="24" rx="2" fill="#C07840" opacity="0.7"/>
  <rect x="45" y="80" width="20" height="24" rx="2" fill="#C07840" opacity="0.5"/>
  <rect x="75" y="80" width="20" height="24" rx="2" fill="#D4A574" opacity="0.6"/>
  <rect x="15" y="118" width="20" height="24" rx="2" fill="#D4A574" opacity="0.5"/>
  <rect x="45" y="118" width="20" height="24" rx="2" fill="#C07840" opacity="0.7"/>
  <!-- Figures walking -->
  <ellipse cx="220" cy="168" rx="18" ry="20" fill="#C8956A"/>
  <rect x="204" y="184" width="32" height="56" rx="4" fill="#D4A574"/>
  <path d="M204 187 Q190 210 186 248 Q190 252 198 250 Q206 248 208 240 Q216 212 220 196 Z" fill="#D4A574"/>
  <path d="M236 187 Q250 210 254 248 Q250 252 242 250 Q234 248 232 240 Q224 212 220 196 Z" fill="#D4A574"/>
  <rect x="208" y="238" width="10" height="30" rx="3" fill="#3E1F00"/>
  <rect x="222" y="238" width="10" height="30" rx="3" fill="#3E1F00"/>

  <ellipse cx="330" cy="160" rx="16" ry="18" fill="#8B5533"/>
  <rect x="316" y="175" width="28" height="60" rx="4" fill="#3E1F00"/>
  <rect x="316" y="233" width="12" height="28" rx="3" fill="#2C1200"/>
  <rect x="332" y="233" width="12" height="28" rx="3" fill="#2C1200"/>

  <!-- Overlay text feel -->
  <rect x="0" y="0" width="600" height="340" fill="#2C1A0E" opacity="0.3"/>
  <text x="300" y="40" text-anchor="middle" font-family="serif" font-size="18" fill="#F5ECD7" opacity="0.9" letter-spacing="2">MODA &amp; ESTILO</text>
</svg>
