<svg xmlns="http://www.w3.org/2000/svg" viewBox="0 0 600 340">
  <defs>
    <linearGradient id="bg" x1="0%" y1="0%" x2="100%" y2="100%">
      <stop offset="0%" style="stop-color:#3E1F00"/><stop offset="100%" style="stop-color:#8B5E3C"/>
    </linearGradient>
  </defs>
  <rect width="600" height="340" fill="url(#bg)"/>
  <!-- Shoe display -->
  <rect x="0" y="240" width="600" height="100" fill="#2C1A0E" opacity="0.6"/>
  <!-- Oxford shoe large -->
  <path d="M80 180 Q100 130 170 118 Q240 110 310 130 L315 200 Q240 215 170 215 Q110 215 80 200 Z" fill="#8B4513"/>
  <path d="M80 200 Q82 218 170 223 Q258 218 315 200 L310 205 Q240 222 170 226 Q82 222 78 205 Z" fill="#1A0800"/>
  <ellipse cx="140" cy="165" rx="42" ry="30" fill="none" stroke="#C07840" stroke-width="1.5" stroke-dasharray="4,3"/>
  <line x1="190" y1="118" x2="250" y2="118" stroke="#C8A070" stroke-width="2.5"/>
  <line x1="188" y1="128" x2="252" y2="128" stroke="#C8A070" stroke-width="2.5"/>
  <line x1="187" y1="138" x2="253" y2="138" stroke="#C8A070" stroke-width="2.5"/>
  <line x1="187" y1="148" x2="253" y2="148" stroke="#C8A070" stroke-width="2.5"/>
  <!-- Second shoe (background) -->
  <path d="M290 185 Q310 135 380 122 Q450 114 520 135 L524 205 Q450 220 380 220 Q320 220 290 205 Z" fill="#C07840" opacity="0.8"/>
  <path d="M290 205 Q292 222 380 228 Q468 222 524 205 L520 210 Q450 228 380 232 Q292 228 288 210 Z" fill="#1A0800" opacity="0.8"/>
  <!-- Text -->
  <text x="300" y="295" text-anchor="middle" font-family="serif" font-size="20" fill="#F5ECD7" letter-spacing="2">CALÇADO PERFEITO</text>
  <rect x="0" y="0" width="600" height="340" fill="#1A0800" opacity="0.2"/>
</svg>
