<svg xmlns="http://www.w3.org/2000/svg" viewBox="0 0 1600 900" role="img" aria-labelledby="title desc">
  <title id="title">Destaques da epoca JCModa</title>
  <desc id="desc">Composicao ficticia com looks masculino e feminino para tempo frio.</desc>
  <rect width="1600" height="900" fill="#F5ECD7"/>
  <rect x="0" y="610" width="1600" height="290" fill="#E0C8A0"/>
  <circle cx="1270" cy="220" r="250" fill="#D4A574" opacity=".68"/>
  <path d="M824 158h158l80 206-48 28-40-94v398H828V298l-42 94-48-28 86-206z" fill="#2C1A0E"/>
  <path d="M860 214h86l26 104H834l26-104z" fill="#C07840"/>
  <rect x="820" y="696" width="222" height="48" rx="24" fill="#FFFFFF"/>
  <path d="M844 724h176" stroke="#2C1A0E" stroke-width="10" stroke-linecap="round"/>
  <path d="M1118 178h128l46 152-38 28 70 338h-286l70-338-38-28 48-152z" fill="#8B5E3C"/>
  <path d="M1146 222h72l24 94h-120l24-94z" fill="#F5ECD7" opacity=".35"/>
  <rect x="1054" y="694" width="326" height="48" rx="24" fill="#2C1A0E"/>
  <rect x="510" y="238" width="190" height="380" rx="54" fill="#C07840"/>
  <path d="M528 238h154l52 134-40 26-28-74v294H544V324l-28 74-40-26 52-134z" fill="#6B3A1F"/>
  <rect x="480" y="636" width="250" height="48" rx="24" fill="#FFFFFF"/>
  <path d="M506 664h198" stroke="#2C1A0E" stroke-width="10" stroke-linecap="round"/>
  <rect x="112" y="126" width="430" height="96" rx="8" fill="#2C1A0E"/>
  <rect x="112" y="260" width="520" height="22" rx="11" fill="#6B3A1F"/>
  <rect x="112" y="310" width="430" height="22" rx="11" fill="#8B5E3C"/>
  <rect x="112" y="360" width="340" height="22" rx="11" fill="#C07840"/>
</svg>
